PathFileType	4	(X/Y/Z)	 1.9Hzlow3min.trc
DataRate	CameraRate	NumFrames	NumMarkers	Units	OrigDataRate	OrigDataStartFrame	OrigNumFrames
200	200	8	43	m	200	501	1000
Frame#	Time	C7			LSH			RSH			MAN			RASI			LASI			HIPR			HIPL			RPSI			LPSI			COX			RTHI1			RTHI2			RTHI3			RTHI4			RLKN			RMKN			RSHA1			RSHA2			RSHA3			RSHA4			RLMAL			RMMAL			RHEEL			RMET5			RMET1			RTOE			LTHI1			LTHI2			LTHI3			LTHI4			LLKN			LMKN			LSHA1			LSHA2			LSHA3			LSHA4			LLMAL			LMMAL			LHEEL			LMET5			LMET1			LTOE			
		X1	Y1	Z1	X2	Y2	Z2	X3	Y3	Z3	X4	Y4	Z4	X5	Y5	Z5	X6	Y6	Z6	X7	Y7	Z7	X8	Y8	Z8	X9	Y9	Z9	X10	Y10	Z10	X11	Y11	Z11	X12	Y12	Z12	X13	Y13	Z13	X14	Y14	Z14	X15	Y15	Z15	X16	Y16	Z16	X17	Y17	Z17	X18	Y18	Z18	X19	Y19	Z19	X20	Y20	Z20	X21	Y21	Z21	X22	Y22	Z22	X23	Y23	Z23	X24	Y24	Z24	X25	Y25	Z25	X26	Y26	Z26	X27	Y27	Z27	X28	Y28	Z28	X29	Y29	Z29	X30	Y30	Z30	X31	Y31	Z31	X32	Y32	Z32	X33	Y33	Z33	X34	Y34	Z34	X35	Y35	Z35	X36	Y36	Z36	X37	Y37	Z37	X38	Y38	Z38	X39	Y39	Z39	X40	Y40	Z40	X41	Y41	Z41	X42	Y42	Z42	X43	Y43	Z43	
501	2.5050	-0.219075	1.432018	-0.555009	-0.146859	1.400184	-0.763264	-0.098135	1.381535	-0.369948	-0.079073	1.364011	-0.571921	-0.067993	0.911104	-0.444782	-0.087645	0.914510	-0.705997	-0.162912	0.955182	-0.400984	-0.173731	0.947923	-0.732692	-0.258126	0.954655	-0.508648	-0.266066	0.951978	-0.600884	-0.265084	0.953387	-0.554973	-0.123896	0.661696	-0.380615	-0.100467	0.606512	-0.380574	-0.039998	0.627808	-0.371640	-0.055586	0.687547	-0.370737	-0.044012	0.417514	-0.393418	-0.014704	0.397298	-0.505592	-0.168249	0.274815	-0.379831	-0.192909	0.240817	-0.389009	-0.122912	0.247473	-0.381720	-0.140035	0.211498	-0.385985	-0.281246	0.092822	-0.416424	-0.246388	0.078030	-0.497093	-0.330341	0.080706	-0.479505	-0.197111	0.032804	-0.362857	-0.131899	0.041719	-0.432875	-0.108980	0.033237	-0.432516	-0.146622	0.680888	-0.769876	-0.123744	0.624197	-0.776708	-0.063790	0.643494	-0.793405	-0.079640	0.701399	-0.788798	-0.054800	0.427107	-0.783122	-0.019782	0.411757	-0.673704	-0.179388	0.283149	-0.778828	-0.199608	0.249573	-0.768733	-0.146212	0.220875	-0.777116	-0.131062	0.260848	-0.786831	-0.273823	0.093495	-0.743426	-0.229218	0.084169	-0.666850	-0.319589	0.085376	-0.676535	-0.191663	0.031009	-0.796362	-0.126291	0.038711	-0.725736	-0.100647	0.032875	-0.738143	
502	2.5100	-0.220196	1.437303	-0.554838	-0.148091	1.406578	-0.763108	-0.099221	1.387895	-0.369821	-0.079830	1.370289	-0.571788	-0.066520	0.916286	-0.445135	-0.085910	0.920164	-0.705750	-0.160376	0.961202	-0.401482	-0.171474	0.954280	-0.732756	-0.256537	0.960115	-0.508678	-0.264480	0.957574	-0.601325	-0.263548	0.958714	-0.555164	-0.123954	0.667068	-0.380600	-0.100951	0.611700	-0.380532	-0.040320	0.632532	-0.371985	-0.055337	0.692439	-0.371211	-0.046212	0.421987	-0.393500	-0.017570	0.401479	-0.505678	-0.169608	0.277910	-0.379650	-0.194047	0.243743	-0.388682	-0.124034	0.250897	-0.381517	-0.140934	0.214847	-0.385675	-0.280933	0.094854	-0.415913	-0.246022	0.080260	-0.496550	-0.329714	0.083031	-0.478886	-0.196870	0.032881	-0.362947	-0.131736	0.041681	-0.432833	-0.108900	0.033222	-0.432627	-0.146696	0.686726	-0.770434	-0.124272	0.629870	-0.777327	-0.064078	0.648721	-0.793652	-0.079448	0.706731	-0.788973	-0.057543	0.431865	-0.783371	-0.022376	0.416285	-0.674111	-0.181257	0.286536	-0.779003	-0.201132	0.252746	-0.768941	-0.147550	0.224531	-0.777774	-0.132785	0.264683	-0.787394	-0.273549	0.095642	-0.744097	-0.228661	0.086696	-0.667584	-0.318887	0.087913	-0.677254	-0.191473	0.030968	-0.796355	-0.126144	0.038708	-0.725878	-0.100603	0.032871	-0.738111	
503	2.5150	-0.221345	1.442863	-0.554664	-0.149344	1.413270	-0.762927	-0.100336	1.394560	-0.369699	-0.080638	1.376877	-0.571657	-0.065050	0.921877	-0.445525	-0.084161	0.926261	-0.705475	-0.157876	0.967479	-0.401976	-0.169188	0.960983	-0.732808	-0.254911	0.965871	-0.508721	-0.262851	0.963461	-0.601782	-0.261972	0.964336	-0.555370	-0.124023	0.672778	-0.380560	-0.101451	0.617228	-0.380473	-0.040686	0.637584	-0.372283	-0.055144	0.697646	-0.371628	-0.048522	0.426812	-0.393504	-0.020469	0.406014	-0.505693	-0.170992	0.281324	-0.379391	-0.195190	0.246973	-0.388303	-0.125141	0.254641	-0.381274	-0.141837	0.218516	-0.385314	-0.280520	0.097078	-0.415362	-0.245547	0.082741	-0.495907	-0.328966	0.085655	-0.478175	-0.196575	0.033015	-0.363041	-0.131547	0.041656	-0.432773	-0.108806	0.033215	-0.432731	-0.146753	0.692891	-0.770989	-0.124816	0.635859	-0.777942	-0.064376	0.654231	-0.793859	-0.079229	0.712341	-0.789122	-0.060361	0.436922	-0.783613	-0.025197	0.421038	-0.674464	-0.183131	0.290172	-0.779291	-0.202647	0.256146	-0.769269	-0.148869	0.228447	-0.778516	-0.134503	0.268774	-0.788018	-0.273211	0.097995	-0.744927	-0.228043	0.089446	-0.668482	-0.318110	0.090705	-0.678183	-0.191242	0.030963	-0.796396	-0.126009	0.038714	-0.726034	-0.100568	0.032869	-0.738084	
504	2.5200	-0.222541	1.448671	-0.554499	-0.150610	1.420218	-0.762726	-0.101463	1.401509	-0.369574	-0.081496	1.383736	-0.571525	-0.063589	0.927863	-0.445962	-0.082422	0.932747	-0.705198	-0.155450	0.973998	-0.402459	-0.166922	0.967975	-0.732866	-0.253256	0.971900	-0.508772	-0.261186	0.969601	-0.602260	-0.260361	0.970224	-0.555589	-0.124138	0.678797	-0.380513	-0.102006	0.623060	-0.380398	-0.041082	0.642939	-0.372550	-0.055029	0.703140	-0.371984	-0.050955	0.431969	-0.393412	-0.023365	0.410872	-0.505610	-0.172436	0.285046	-0.379059	-0.196354	0.250484	-0.387883	-0.126188	0.258624	-0.381052	-0.142713	0.222451	-0.384948	-0.280023	0.099535	-0.414751	-0.244955	0.085462	-0.495153	-0.328088	0.088576	-0.477351	-0.196220	0.033210	-0.363134	-0.131342	0.041650	-0.432687	-0.108704	0.033216	-0.432810	-0.146811	0.699344	-0.771530	-0.125397	0.642133	-0.778550	-0.064707	0.659981	-0.794037	-0.079009	0.718197	-0.789258	-0.063256	0.442239	-0.783863	-0.028224	0.426001	-0.674772	-0.185000	0.294040	-0.779699	-0.204146	0.259754	-0.769707	-0.150160	0.232605	-0.779346	-0.136206	0.273113	-0.788713	-0.272798	0.100535	-0.745909	-0.227355	0.092397	-0.669526	-0.317255	0.093743	-0.679314	-0.190965	0.030998	-0.796481	-0.125885	0.038732	-0.726206	-0.100544	0.032869	-0.738065	
505	2.5250	-0.223771	1.454695	-0.554338	-0.151879	1.427370	-0.762500	-0.102599	1.408735	-0.369450	-0.082411	1.390826	-0.571403	-0.062145	0.934225	-0.446450	-0.080708	0.939567	-0.704939	-0.153130	0.980740	-0.402935	-0.164710	0.975198	-0.732931	-0.251573	0.978175	-0.508852	-0.259495	0.975962	-0.602759	-0.258726	0.976347	-0.555818	-0.124328	0.685082	-0.380473	-0.102657	0.629151	-0.380339	-0.041538	0.648556	-0.372777	-0.055030	0.708872	-0.372262	-0.053524	0.437451	-0.393222	-0.026221	0.416009	-0.505410	-0.173954	0.289090	-0.378650	-0.197534	0.254295	-0.387422	-0.127293	0.262919	-0.380704	-0.143638	0.226732	-0.384439	-0.279408	0.102184	-0.414050	-0.244228	0.088404	-0.494285	-0.327095	0.091754	-0.476425	-0.195808	0.033458	-0.363215	-0.131123	0.041665	-0.432569	-0.108594	0.033231	-0.432854	-0.146886	0.706051	-0.772054	-0.126026	0.648648	-0.779151	-0.065097	0.665933	-0.794200	-0.078811	0.724251	-0.789396	-0.066199	0.447796	-0.784136	-0.031418	0.431160	-0.675046	-0.186863	0.298095	-0.780200	-0.205633	0.263544	-0.770230	-0.151423	0.236983	-0.780261	-0.137893	0.277663	-0.789484	-0.272298	0.103253	-0.747029	-0.226609	0.095516	-0.670734	-0.316295	0.097017	-0.680622	-0.190634	0.031076	-0.796606	-0.125771	0.038762	-0.726399	-0.100531	0.032871	-0.738059	
506	2.5300	-0.225035	1.460905	-0.554186	-0.153145	1.434680	-0.762253	-0.103727	1.416138	-0.369319	-0.083376	1.398100	-0.571283	-0.060723	0.940940	-0.446998	-0.079026	0.946674	-0.704718	-0.150933	0.987691	-0.403401	-0.162566	0.982604	-0.733004	-0.249873	0.984650	-0.508955	-0.257784	0.982520	-0.603274	-0.257073	0.982665	-0.556063	-0.124619	0.691591	-0.380449	-0.103421	0.635470	-0.380290	-0.042074	0.654401	-0.372960	-0.055167	0.714798	-0.372449	-0.056222	0.443225	-0.392927	-0.029003	0.421383	-0.505078	-0.175547	0.293422	-0.378164	-0.198755	0.258355	-0.386935	-0.128457	0.267487	-0.380240	-0.144628	0.231321	-0.383784	-0.278691	0.105014	-0.413257	-0.243379	0.091520	-0.493296	-0.325984	0.095161	-0.475391	-0.195340	0.033755	-0.363274	-0.130896	0.041697	-0.432415	-0.108479	0.033258	-0.432860	-0.146984	0.712960	-0.772554	-0.126703	0.655367	-0.779739	-0.065538	0.672039	-0.794361	-0.078649	0.730472	-0.789545	-0.069192	0.453561	-0.784433	-0.034731	0.436507	-0.675295	-0.188706	0.302343	-0.780780	-0.207093	0.267502	-0.770838	-0.152656	0.241561	-0.781257	-0.139564	0.282423	-0.790320	-0.271692	0.106139	-0.748277	-0.225794	0.098756	-0.672084	-0.315208	0.100494	-0.682076	-0.190242	0.031209	-0.796767	-0.125665	0.038801	-0.726615	-0.100535	0.032874	-0.738069	
507	2.5350	-0.226334	1.467251	-0.554043	-0.154410	1.442109	-0.761992	-0.104852	1.423689	-0.369200	-0.084385	1.405511	-0.571152	-0.059335	0.947974	-0.447596	-0.077389	0.954005	-0.704544	-0.148867	0.994829	-0.403856	-0.160503	0.990155	-0.733087	-0.248163	0.991303	-0.509093	-0.256065	0.989241	-0.603806	-0.255412	0.989161	-0.556332	-0.125021	0.698276	-0.380447	-0.104313	0.641962	-0.380252	-0.042699	0.660438	-0.373100	-0.055395	0.720884	-0.372575	-0.059041	0.449233	-0.392543	-0.031677	0.426949	-0.504608	-0.177205	0.298001	-0.377606	-0.200017	0.262633	-0.386422	-0.129788	0.272414	-0.379513	-0.145680	0.236172	-0.382914	-0.277866	0.107990	-0.412373	-0.242396	0.094799	-0.492188	-0.324747	0.098760	-0.474254	-0.194827	0.034097	-0.363308	-0.130667	0.041739	-0.432222	-0.108362	0.033298	-0.432825	-0.147110	0.720027	-0.773030	-0.127437	0.662248	-0.780308	-0.066040	0.678265	-0.794535	-0.078533	0.736822	-0.789713	-0.072234	0.459509	-0.784750	-0.038107	0.442055	-0.675522	-0.190521	0.306764	-0.781416	-0.208517	0.271625	-0.771507	-0.153849	0.246335	-0.782329	-0.141214	0.287360	-0.791215	-0.270962	0.109171	-0.749640	-0.224880	0.102089	-0.673583	-0.313977	0.104158	-0.683659	-0.189782	0.031397	-0.796950	-0.125569	0.038850	-0.726859	-0.100553	0.032879	-0.738099	
508	2.5400	-0.227659	1.473698	-0.553915	-0.155675	1.449613	-0.761720	-0.106000	1.431337	-0.369123	-0.085434	1.413021	-0.571020	-0.057987	0.955289	-0.448235	-0.075803	0.961500	-0.704422	-0.146942	1.002123	-0.404328	-0.158523	0.997816	-0.733176	-0.246455	0.998094	-0.509260	-0.254343	0.996098	-0.604351	-0.253753	0.995792	-0.556617	-0.125533	0.705107	-0.380461	-0.105334	0.648592	-0.380231	-0.043402	0.666613	-0.373205	-0.055723	0.727099	-0.372635	-0.061961	0.455426	-0.392088	-0.034241	0.432667	-0.504008	-0.178915	0.302776	-0.376991	-0.201309	0.267108	-0.385879	-0.131214	0.277595	-0.378608	-0.146756	0.241242	-0.381872	-0.276928	0.111102	-0.411366	-0.241267	0.098223	-0.490974	-0.323381	0.102522	-0.473013	-0.194271	0.034481	-0.363323	-0.130443	0.041789	-0.431994	-0.108246	0.033346	-0.432748	-0.147273	0.727204	-0.773467	-0.128219	0.669238	-0.780801	-0.066606	0.684586	-0.794726	-0.078475	0.743262	-0.789907	-0.075314	0.465627	-0.785083	-0.041499	0.447793	-0.675733	-0.192289	0.311320	-0.782058	-0.209890	0.275902	-0.772213	-0.154996	0.251283	-0.783467	-0.142827	0.292474	-0.792171	-0.270089	0.112334	-0.751108	-0.223857	0.105511	-0.675218	-0.312587	0.107996	-0.685351	-0.189255	0.031626	-0.797139	-0.125483	0.038912	-0.727130	-0.100586	0.032884	-0.738152	
